<svg xmlns="http://www.w3.org/2000/svg" width="490" height="403" viewBox="0 0 490 403">
  <g id="Pop-Up_logo2" data-name="Pop-Up logo2" transform="translate(-86 -318.922)">
    <g id="Group_3" data-name="Group 3" transform="translate(190.437 635.085)">
      <g id="Symbols" transform="translate(-0.437 -0.164)">
        <g id="Objects_Seat_Ball" data-name="Objects/Seat/Ball">
          <ellipse id="Ballsy-Ball" cx="47.5" cy="43.5" rx="47.5" ry="43.5" fill="#c5cfd6"/>
        </g>
      </g>
      <g id="Symbols-2" data-name="Symbols" transform="translate(33.118 24.03)">
        <g id="Head_Front_Hijab-1" data-name="Head/Front/Hijab-1" transform="translate(0 0)">
          <g id="Head" transform="translate(9.224 1.181)">
            <path id="Path_12" data-name="Path 12" d="M4.364,18.03A14.078,14.078,0,0,1,.558,7.855C1.351-3.333,17.085-.872,20.146,4.775s2.7,19.969-1.259,20.978c-1.577.4-4.938-.583-8.358-2.624l2.147,15.032H0Z" transform="translate(0 0)" fill="#b28b67" fill-rule="evenodd"/>
          </g>
          <g id="Hijab">
            <path id="Front" d="M42.367,4.052c-.29-.172-.9-.533-1.206-.664-.073-.032-.583-.392-.6-.387-.386.129-1.5.6-1.6,1.016-.015.031-.029.06-.044.086-.158.285-.3.577-.442.873-.3.649-.567,1.327-.818,2-.489,1.311-.913,2.652-1.3,4-.4,1.368-.735,2.753-1.112,4.127C34.7,17.076,34.007,19,33.468,20.981a11.486,11.486,0,0,0-.446,3.838c0,.016,0,.031,0,.047l0,.019q.023.3.067.6c.026.172.051.344.079.516.493-.973.869-2.044,1.268-3.061.039-.1.076-.2.113-.3q.193-.309.393-.615c.837-1.287,1.677-2.568,2.48-3.878a69.811,69.811,0,0,1,4.585-6.925c.505-.639,1.023-1.268,1.522-1.912q.426-.55.828-1.118c.191-.271,1.023-1.217.722-1.784A15.459,15.459,0,0,0,42.367,4.052Z" transform="translate(-15.853 -1.819)" fill="#2c2c2c" fill-rule="evenodd"/>
            <path id="Turban" d="M25.935,2.356c.282.094.145-.488-.128-.692C24.539.716,19.7.372,15.48,1.238A20.546,20.546,0,0,0,7.117,5.119a13.961,13.961,0,0,0-4.151,6.949,19.992,19.992,0,0,0-.449,8.35c.093.613.291,1.2.4,1.8A13.794,13.794,0,0,0,3.329,24.2c.136.4.368.8.484,1.2a2.735,2.735,0,0,1-.045,1.359,14.728,14.728,0,0,1-.631,2.261c-.417,1.1-.923,2.127-1.24,3.266-.422,1.516-2.188,6.451-.9,7.8H25.568c-.619-1.67-2.476-3.636-2.852-5.424-.221-1.053-.327-3.354-.35-3.437-.554-3.778-1.635-5.582-2.312-6.236s-1.579-.856-1.625-1.424c-.192-2.349.752-4.6,1.444-6.791.825-2.613,1.429-5.29,2.279-7.894C22.529,7.724,24.468,1.869,25.935,2.356Z" transform="translate(-0.535 -0.741)" fill="#8991dc" fill-rule="evenodd"/>
            <path id="Shade" d="M20.887,9a19.548,19.548,0,0,0-.926,8.439h-.454c-.849-3.752-.093-7.284.81-8.439ZM8.458,16.509c1.727,4.147,2.514,6.6,7.335,9.951l-.372.258c-4.786-2.685-6.18-5.887-7.326-10.036Zm7.094-4.22c.784,5.886,1.013,9.248,5.1,15.686l-.435.132c-4.2-5.606-4.871-10.181-5.069-15.785ZM11.039,29.773l.372-.447c5.074,1.573,4.509,4.821,10.9,8.11l-.534.32C16.181,35.47,14.872,30.567,11.039,29.773Z" transform="translate(-4.102 -4.682)" fill="rgba(0,0,0,0.2)" fill-rule="evenodd"/>
          </g>
        </g>
      </g>
    </g>
    <g id="Group_4" data-name="Group 4" transform="translate(376.607 635.085)">
      <g id="Symbols-3" data-name="Symbols" transform="translate(0.393 -0.164)">
        <g id="Objects_Seat_Ball-2" data-name="Objects/Seat/Ball">
          <ellipse id="Ballsy-Ball-2" data-name="Ballsy-Ball" cx="47.5" cy="43.5" rx="47.5" ry="43.5" fill="#c5cfd6"/>
        </g>
      </g>
      <g id="Symbols-4" data-name="Symbols" transform="translate(27.139 24.03)">
        <g id="Head_Front_Curly" data-name="Head/Front/Curly">
          <g id="Head-2" data-name="Head" transform="translate(12.589 8.598)">
            <path id="Path_13" data-name="Path 13" d="M4.334,17.444A13.421,13.421,0,0,1,.554,7.6C1.342-3.224,16.968-.843,20.007,4.62s2.678,19.32-1.25,20.3c-1.567.389-4.9-.564-8.3-2.539l2.132,14.544H0Z" transform="translate(0 0)" fill="#b28b67" fill-rule="evenodd"/>
          </g>
          <path id="hair" d="M68.173,19.645a2.675,2.675,0,0,0-1.907-1.864,2.6,2.6,0,0,0-.7-.067c-.085,0-.108.027-.148-.03a.726.726,0,0,1-.042-.2,3.582,3.582,0,0,0-.142-.456A3.715,3.715,0,0,0,64.3,15.7a4.758,4.758,0,0,0-2.813-1.283,4.242,4.242,0,0,0-1.691.222,6.832,6.832,0,0,0-.821.339c-.08.039-.34.228-.42.216s-.267-.226-.339-.28A5.1,5.1,0,0,0,55.11,14a5.853,5.853,0,0,0-3.509.807,6.976,6.976,0,0,0-.633.507c-.106.095-.208.193-.306.3-.059.062-.116.125-.172.19-.094.11-.079.146-.21.069a2.687,2.687,0,0,0-1.675-.363,3.856,3.856,0,0,0-1.011.275,2.23,2.23,0,0,1-.481.228,2.377,2.377,0,0,1-.486-.208,4.126,4.126,0,0,0-2.021-.18,5.333,5.333,0,0,0-1.981.751,2.631,2.631,0,0,0-.734.644c-.086.115-.164.237-.262.343-.057.062-.171.126-.2.205a4.435,4.435,0,0,0-.84-.357,2.142,2.142,0,0,0-1.182.043,4.7,4.7,0,0,0-1.863,1.277,5.12,5.12,0,0,0-.69.893q-.141.23-.258.472a1.731,1.731,0,0,1-.113.246c-.065.091-.108.092-.225.132a3.645,3.645,0,0,0-1.548,1,3.389,3.389,0,0,0-.8,1.638.806.806,0,0,1-.032.2c-.03.026-.149.015-.194.02a4.226,4.226,0,0,0-.465.079,3.937,3.937,0,0,0-.818.284A4.162,4.162,0,0,0,30.3,25.9a4.73,4.73,0,0,0,.079,3.35,3.23,3.23,0,0,0,.258.491c.062.1.082.1.042.2s-.126.22-.179.329a4.608,4.608,0,0,0-.37,1.12,5.069,5.069,0,0,0-.064,1.936,2.729,2.729,0,0,0,.31.85,2.437,2.437,0,0,0,.272.38c.053.061.11.12.169.176a1.11,1.11,0,0,1,.107.1c.07.087.085.015.049.144a5.635,5.635,0,0,1-.236.53c-.073.18-.138.362-.2.545a7.809,7.809,0,0,0-.289,1.137,3.452,3.452,0,0,0,.261,2.208,2.23,2.23,0,0,0,.648.744,2.429,2.429,0,0,0,.426.249c.077.035.176.05.211.122s-.018.231-.031.318a5.109,5.109,0,0,0,.064,2.281,3.163,3.163,0,0,0,1.3,1.676,4.159,4.159,0,0,0,4.028.11,4.238,4.238,0,0,0,.9-.6c.69.9,2.109.867,3.118.612a4.444,4.444,0,0,0,2.845-2.267,1.935,1.935,0,0,0,3.011-.382,2.356,2.356,0,0,0,.254-.8c.021-.145.008-.292.023-.436a2.2,2.2,0,0,1,.22-.539,2.886,2.886,0,0,0,.234-1.075,5.27,5.27,0,0,0-.043-.577,1.916,1.916,0,0,1,.061-.507,2.487,2.487,0,0,1-1.018-.123,2.011,2.011,0,0,1-.787-.534,4.38,4.38,0,0,1-.99-1.785c-.448-1.414-.264-3.11,1.211-3.886a7.87,7.87,0,0,1,3.563-.182c.86.188,1.836,2.018,1.884,2.19.03.106.015.238.116.309.223.156.591-.115.755-.248a2.883,2.883,0,0,0,.662-.848,10.288,10.288,0,0,0,.907-2.146c.168-.572.275-1.162.494-1.719a2.646,2.646,0,0,1,1.1-1.364,9.868,9.868,0,0,1,1.887-.736,4.735,4.735,0,0,0,1.745-.925,2.353,2.353,0,0,0,.3-.322c.069-.092.136-.269.241-.327.162-.091.4.146.54.232a6.133,6.133,0,0,1,1.736,1.662,10.243,10.243,0,0,1,1.153,1.979,5.626,5.626,0,0,0,.775,1.65A3.385,3.385,0,0,0,66,31.349a2.439,2.439,0,0,0,1.064-.888,1.336,1.336,0,0,0,.121-.9c-.038-.182-.114-.353-.156-.532a1.612,1.612,0,0,0-.143-.431,1.094,1.094,0,0,0-.687-.528,3.124,3.124,0,0,0,.742-.97,4.055,4.055,0,0,0,.384-1.264,1.49,1.49,0,0,0-.212-.984,2.668,2.668,0,0,0-.872-.7,5.537,5.537,0,0,0,1.213-1.274A3.865,3.865,0,0,0,68.173,19.645Z" transform="translate(-30 -14)" fill="#191847" fill-rule="evenodd"/>
        </g>
      </g>
    </g>
    <g id="Group_1" data-name="Group 1" transform="translate(387.959 318.922)">
      <g id="Symbols-5" data-name="Symbols" transform="translate(0.041)">
        <g id="Objects_Seat_Ball-3" data-name="Objects/Seat/Ball">
          <ellipse id="Ballsy-Ball-3" data-name="Ballsy-Ball" cx="47.5" cy="43.5" rx="47.5" ry="43.5" fill="#c5cfd6"/>
        </g>
      </g>
      <g id="Symbols-6" data-name="Symbols" transform="translate(36.444 22.127)">
        <g id="Head_Front_Caesar" data-name="Head/Front/Caesar">
          <g id="Head-3" data-name="Head" transform="translate(1.312 1.149)">
            <path id="Path_14" data-name="Path 14" d="M5.419,19.818C2.4,16.71.351,12.9.693,8.634c.985-12.3,20.524-9.592,24.324-3.385S28.366,27.2,23.454,28.307c-1.959.442-6.132-.641-10.379-2.884l2.666,16.523H0Z" transform="translate(0 0)" fill="#b28b67" fill-rule="evenodd"/>
          </g>
          <path id="Combined-Shape" d="M63.629,43.288a3.471,3.471,0,0,0-1.79-.5,3.186,3.186,0,0,0-3.279,2.873,3.353,3.353,0,0,0,1.985,3.187c-.624,1.068-1.251,1.843-1.985,1.984C55.724,50.583,52,44.411,52,39.343,52,33.8,57.038,29,66.429,29c8.441,0,11.641,3.049,11.806,5.746-3.617.871-9.937,1.206-19.02,1.149v.575l7.871.575L68.4,40.492C66.31,40.355,64.819,41.609,63.629,43.288Z" transform="translate(-52 -29)" fill="#191847" fill-rule="evenodd"/>
        </g>
      </g>
    </g>
    <g id="Group_5" data-name="Group 5" transform="translate(481.043 473.001)">
      <g id="Symbols-7" data-name="Symbols" transform="translate(-0.043 -0.08)">
        <g id="Objects_Seat_Ball-4" data-name="Objects/Seat/Ball">
          <ellipse id="Ballsy-Ball-4" data-name="Ballsy-Ball" cx="47.5" cy="43.5" rx="47.5" ry="43.5" fill="#c5cfd6"/>
        </g>
      </g>
      <g id="Symbols-8" data-name="Symbols" transform="translate(33.878 24.499)">
        <g id="Head_Front_Short-Beard" data-name="Head/Front/Short-Beard">
          <g id="Head-4" data-name="Head" transform="translate(0.07 1.127)">
            <path id="Path_18" data-name="Path 18" d="M5.233,19.623C2.314,16.546.339,12.774.669,8.549,1.62-3.627,20.488-.949,24.158,5.2s3.234,21.733-1.509,22.832c-1.892.438-5.921-.635-10.023-2.856L15.2,41.533H0Z" transform="translate(0 0)" fill="#b28b67" fill-rule="evenodd"/>
          </g>
          <path id="Hair-2" data-name="Hair" d="M67.345,40.04q.873,10.921,4.617,10.921c3.745,0,6.922-2.136,8.565-2.136,1.2,0,.93,1.347.136,2.345-.655.824-3.845,1.618-3.845,2.895s2.52.289,2.52,1.046c0,1.253.443,3.608-1.977,3.608-2.449,0-9.473-.8-10.676-4.068q-1.165-3.161-1.507-13.1a4.265,4.265,0,0,0-.453-.024,3.622,3.622,0,0,0-3.8,3.414,3.245,3.245,0,0,0,1.145,2.442c-.879,1.115-1.865,2.28-2.994,3.481a10.742,10.742,0,0,1-3.243-15.409c1.146-3.15,3.742-4.832,6.807-5.613a12.19,12.19,0,0,1,7.236-.479c4.265.329,8.073,1.5,9.153,2.191,0,3.627-.782,4.7-7.465,4.609A11.757,11.757,0,0,0,67.345,40.04Z" transform="translate(-53.889 -29.02)" fill="#191847" fill-rule="evenodd"/>
        </g>
      </g>
    </g>
    <g id="Group_2" data-name="Group 2" transform="translate(190.437 318.922)">
      <g id="Symbols-9" data-name="Symbols" transform="translate(-0.437)">
        <g id="Objects_Seat_Ball-5" data-name="Objects/Seat/Ball">
          <ellipse id="Ballsy-Ball-5" data-name="Ballsy-Ball" cx="47.5" cy="43.5" rx="47.5" ry="43.5" transform="translate(0)" fill="#c5cfd6"/>
        </g>
      </g>
      <g id="Symbols-10" data-name="Symbols" transform="translate(31.906 22.453)">
        <g id="Head_Front_Afro" data-name="Head/Front/Afro">
          <path id="Hair-Back" d="M44.851,44.67c5.554,0,7.575-6.7,10.73-10.372,2.258-2.629,6.111-1.845,7.252-5.527C65.7,19.515,58.024,13,48.01,13S31.243,18.714,29.785,27.3A15,15,0,0,0,44.851,44.67Z" transform="translate(-29.581 -13)" fill="#191847" fill-rule="evenodd"/>
          <g id="Head-5" data-name="Head" transform="translate(11.868 8.81)">
            <path id="Path_15" data-name="Path 15" d="M4.015,16.881a13.314,13.314,0,0,1-3.5-9.527C1.243-3.12,15.721-.816,18.538,4.471s2.482,18.7-1.158,19.641c-1.452.377-4.544-.546-7.691-2.457l1.975,14.074H0Z" transform="translate(0 0)" fill="#b28b67" fill-rule="evenodd"/>
          </g>
          <path id="Hair-3" data-name="Hair" d="M60.177,37.89a3.023,3.023,0,0,0-1.425-.354,2.965,2.965,0,0,0-2.992,2.937,2.888,2.888,0,0,0,.6,1.764,9.449,9.449,0,0,0-1.351,3.684c-2.457,0-11.426-9.364-2.491-18.174s21.845,3.767,17.966,4.5C68.251,32.669,63.759,34.813,60.177,37.89Z" transform="translate(-39.377 -18.937)" fill="#191847" fill-rule="evenodd"/>
        </g>
      </g>
    </g>
    <g id="Group_6" data-name="Group 6" transform="translate(86 473.001)">
      <g id="Symbols-11" data-name="Symbols" transform="translate(0 -0.08)">
        <g id="Objects_Seat_Ball-6" data-name="Objects/Seat/Ball">
          <ellipse id="Ballsy-Ball-6" data-name="Ballsy-Ball" cx="47.5" cy="43.5" rx="47.5" ry="43.5" fill="#c5cfd6"/>
        </g>
      </g>
      <g id="Symbols-12" data-name="Symbols" transform="translate(31.068 21.039)">
        <g id="Head_Front_Hijab2" data-name="Head/Front/Hijab2">
          <g id="Head-6" data-name="Head" transform="translate(9.136 1.437)">
            <path id="Path_16" data-name="Path 16" d="M4.668,18.62C2.065,15.7.3,12.121.6,8.112,1.445-3.442,18.275-.9,21.549,4.931S24.434,25.553,20.2,26.6c-1.687.416-5.282-.6-8.94-2.71l2.3,15.524H0Z" transform="translate(0 0)" fill="#b28b67" fill-rule="evenodd"/>
          </g>
          <path id="Hijab-2" data-name="Hijab" d="M66.719,32.713c.3.1,0-1.145-.722-1.6-2.215-1.393-8.809-3.454-13.318-2.559a23.427,23.427,0,0,0-9.2,4.02,16.008,16.008,0,0,0-4.924,7.452c-.808,2.811-1.114,6.722,0,9.174,1.327,2.921,6.026,6.068,6.15,6.486.142.477-.414,2.341-.82,4.3a31.847,31.847,0,0,0,0,7.779c.354,1.3,2.252,1.944,3.08,2.038,4.576.521,7.894,5.95,9.274,7.339q9.218,8.844,12.867,7.692c.64-.2-.319-7.528-.96-10.668s-6.919-8.743-7.321-10.59a26.3,26.3,0,0,1-.3-3.068c-.592-3.9-.49-4.218-1.354-5.808s-1.534-1.683-1.326-2.146c1.014-2.263,4.277-9.186,5.017-11.449.882-2.7.465-1.812,1.375-4.5C64.638,35.42,65.15,32.21,66.719,32.713Z" transform="translate(-37.829 -28.337)" fill="#89c5cc"/>
          <path id="Shade-2" data-name="Shade" d="M57.778,37c-.991,3-1.2,4.609-.991,8.714H56.3c-.908-3.874-.1-7.522.866-8.714Zm-13.3,7.755c1.847,4.282,2.689,6.811,7.846,10.276l-.4.266c-5.12-2.773-6.611-6.08-7.836-10.364ZM52.071,40.4c.839,6.078,1.084,9.55,5.453,16.2l-.465.136c-4.5-5.789-5.21-10.514-5.423-16.3ZM47.244,58.452l.4-.462c5.428,1.625,4.823,4.979,11.659,8.375l-.571.331C52.744,64.335,51.345,59.272,47.244,58.452Z" transform="translate(-40.555 -32.323)" fill="rgba(0,0,0,0.2)" fill-rule="evenodd"/>
        </g>
      </g>
    </g>
    <text id="Freely._Safely._Anonymously." data-name="Freely. 

Safely.
 
Anonymously." transform="translate(330 469.922)" fill="#fff" font-size="29" font-family="Montserrat-Regular, Montserrat" letter-spacing="0.025em"><tspan x="-52.853" y="0">Freely. </tspan><tspan x="0.363" y="30"></tspan><tspan x="-47.531" y="60">Safely.</tspan><tspan x="-3.799" y="90"> </tspan><tspan x="-106.546" y="120">Anonymously.</tspan></text>
  </g>
</svg>
