<svg xmlns="http://www.w3.org/2000/svg" width="303.606" height="77.359" viewBox="0 0 303.606 77.359">
  <g id="NewLogo2" transform="translate(-9.894 -6.297)">
    <text id="SpeakMyMind" transform="translate(161 55)" fill="rgba(15,9,9,0.87)" stroke="#000" stroke-width="0.5" font-size="23" font-family="CourierNewPSMT, Courier New"><tspan x="0" y="0">SpeakMyMind</tspan></text>
    <path id="Icon_awesome-brain" data-name="Icon awesome-brain" d="M32.131,0a9.749,9.749,0,0,0-9.547,6.924c-.124,0-.216-.029-.34-.029-5.453,0-9.886,4.123-9.886,9.194a7.909,7.909,0,0,0,.263,2.011A11.526,11.526,0,0,0,4.943,28.73a10.852,10.852,0,0,0,1.282,5.013A11.326,11.326,0,0,0,0,43.67,11.522,11.522,0,0,0,7.631,54.286a9.815,9.815,0,0,0-.216,2.025c0,5.717,4.974,10.343,11.122,10.343a11.237,11.237,0,0,0,1.854-.172,11.047,11.047,0,0,0,10.5,7.068c6.148,0,11.122-4.626,11.122-10.343V9.194C42.017,4.123,37.584,0,32.131,0ZM88.977,43.67a11.326,11.326,0,0,0-6.225-9.926,10.667,10.667,0,0,0,1.282-5.013A11.526,11.526,0,0,0,76.357,18.1a8.666,8.666,0,0,0,.263-2.011c0-5.071-4.433-9.194-9.886-9.194-.124,0-.232.029-.34.029A9.749,9.749,0,0,0,56.847,0C51.394,0,46.96,4.108,46.96,9.194V63.206c0,5.717,4.974,10.343,11.122,10.343a11.047,11.047,0,0,0,10.5-7.068,11.237,11.237,0,0,0,1.854.172c6.148,0,11.122-4.626,11.122-10.343a9.815,9.815,0,0,0-.216-2.025A11.522,11.522,0,0,0,88.977,43.67Z" transform="translate(10.394 9.607)" stroke="#000" stroke-width="1"/>
    <g id="Icon_feather-wifi" data-name="Icon feather-wifi" transform="translate(140.226 8.418) rotate(90)">
      <path id="Path_19" data-name="Path 19" d="M0,8.4a31.916,31.916,0,0,1,43.149,0" transform="translate(10.971 16.476)" fill="none" stroke="#000" stroke-linecap="round" stroke-linejoin="round" stroke-width="3"/>
      <path id="Path_20" data-name="Path 20" d="M0,13.173c18.53-17.564,46.316-17.564,64.846,0" fill="none" stroke="#000" stroke-linecap="round" stroke-linejoin="round" stroke-width="3"/>
      <path id="Path_21" data-name="Path 21" d="M0,3.654a17.346,17.346,0,0,1,21.3,0" transform="translate(21.789 32.95)" fill="none" stroke="#000" stroke-linecap="round" stroke-linejoin="round" stroke-width="3"/>
      <path id="Path_22" data-name="Path 22" d="M0,0H0" transform="translate(32.423 49.423)" fill="none" stroke="#000" stroke-linecap="round" stroke-linejoin="round" stroke-width="3"/>
    </g>
  </g>
</svg>
